<svg width="12" height="12" viewBox="0 0 12 12" fill="none" xmlns="http://www.w3.org/2000/svg"><path d="M1.35902 11.1427C1.25967 11.1427 1.16255 11.1133 1.07994 11.0581C0.997332 11.0029 0.932946 10.9245 0.894925 10.8327C0.856905 10.7409 0.846959 10.6399 0.866345 10.5425C0.885732 10.445 0.93358 10.3555 1.00384 10.2853L10.2851 1.00405C10.3793 0.909854 10.507 0.856934 10.6403 0.856934C10.7735 0.856934 10.9012 0.909854 10.9954 1.00405C11.0896 1.09825 11.1426 1.22601 11.1426 1.35923C11.1426 1.49245 11.0896 1.62021 10.9954 1.71441L1.71419 10.9957C1.66759 11.0424 1.61223 11.0794 1.55128 11.1046C1.49032 11.1299 1.42499 11.1428 1.35902 11.1427Z" fill="white"></path><path d="M10.6404 11.1427C10.5744 11.1428 10.5091 11.1299 10.4481 11.1046C10.3871 11.0794 10.3318 11.0424 10.2852 10.9957L1.00393 1.71441C0.909732 1.62021 0.856812 1.49245 0.856812 1.35923C0.856812 1.22601 0.909732 1.09825 1.00393 1.00405C1.09813 0.909854 1.22589 0.856934 1.35911 0.856934C1.49233 0.856934 1.62009 0.909854 1.71429 1.00405L10.9955 10.2853C11.0658 10.3555 11.1136 10.445 11.133 10.5425C11.1524 10.6399 11.1425 10.7409 11.1045 10.8327C11.0664 10.9245 11.002 11.0029 10.9194 11.0581C10.8368 11.1133 10.7397 11.1427 10.6404 11.1427Z" fill="white"></path></svg>