<svg width="14" height="14" viewBox="0 0 14 14" fill="none" xmlns="http://www.w3.org/2000/svg" data-sentry-element="svg" data-sentry-component="FilterIcon" data-sentry-source-file="FilterIcon.tsx"><path d="M12.6146 10.5729H11.2553C11.0343 9.83744 10.3585 9.29691 9.55209 9.29691C8.74565 9.29691 8.07034 9.83744 7.84884 10.5729H1.38541C1.10366 10.5729 0.875 10.8016 0.875 11.0834C0.875 11.3651 1.10366 11.5938 1.38541 11.5938H7.84881C8.06982 12.3293 8.74562 12.8698 9.55207 12.8698C10.3585 12.8698 11.0338 12.3293 11.2553 11.5938H12.6146C12.8968 11.5938 13.125 11.3651 13.125 11.0834C13.125 10.8016 12.8968 10.5729 12.6146 10.5729ZM9.55209 11.849C9.12997 11.849 8.78647 11.5055 8.78647 11.0834C8.78647 10.6612 9.12997 10.3177 9.55209 10.3177C9.97421 10.3177 10.3177 10.6612 10.3177 11.0834C10.3177 11.5055 9.97419 11.849 9.55209 11.849ZM12.6146 2.40628H11.2553C11.0338 1.67078 10.3585 1.13025 9.55209 1.13025C8.74565 1.13025 8.07034 1.67078 7.84881 2.40628H1.38541C1.10366 2.40628 0.875 2.63494 0.875 2.91669C0.875 3.19844 1.10366 3.4271 1.38541 3.4271H7.84881C8.07034 4.16263 8.74562 4.70316 9.55209 4.70316C10.3586 4.70316 11.0338 4.16263 11.2553 3.42712H12.6146C12.8968 3.42712 13.125 3.19847 13.125 2.91672C13.125 2.63497 12.8968 2.40628 12.6146 2.40628ZM9.55209 3.68232C9.12997 3.68232 8.78647 3.33881 8.78647 2.91669C8.78647 2.49457 9.12997 2.15107 9.55209 2.15107C9.97421 2.15107 10.3177 2.49457 10.3177 2.91669C10.3177 3.33881 9.97419 3.68232 9.55209 3.68232ZM12.6146 6.48962H6.15118C5.92966 5.75412 5.25438 5.21359 4.44793 5.21359C3.64149 5.21359 2.96618 5.75412 2.74468 6.48962H1.38541C1.10366 6.48962 0.875 6.71828 0.875 7.00003C0.875 7.28178 1.10366 7.51044 1.38541 7.51044H2.74466C2.96618 8.24594 3.64147 8.78647 4.44791 8.78647C5.25435 8.78647 5.92966 8.24594 6.15116 7.51044H12.6146C12.8968 7.51044 13.125 7.28178 13.125 7.00003C13.125 6.71828 12.8968 6.48962 12.6146 6.48962ZM4.44791 7.76566C4.02579 7.76566 3.68228 7.42215 3.68228 7.00003C3.68228 6.57791 4.02579 6.23441 4.44791 6.23441C4.87003 6.23441 5.21353 6.57791 5.21353 7.00003C5.21353 7.42215 4.87003 7.76566 4.44791 7.76566Z" fill="white" data-sentry-element="path" data-sentry-source-file="FilterIcon.tsx"></path></svg>