<svg width="14" height="14" viewBox="0 0 14 14" fill="none" xmlns="http://www.w3.org/2000/svg" data-sentry-element="svg" data-sentry-component="ClockTimeIcon" data-sentry-source-file="ClockTimeIcon.tsx"><path d="M6.93656 7.57094L9.56156 9.53969C9.75494 9.68472 10.029 9.64556 10.1741 9.45219C10.3191 9.25881 10.2799 8.98472 10.0866 8.83969L7.65625 7V3.28125C7.65625 3.03953 7.46047 2.84375 7.21875 2.84375C6.97703 2.84375 6.78125 3.03953 6.78125 3.28125V7.21875C6.78125 7.364 6.84206 7.49481 6.93656 7.57094Z" fill="white" data-sentry-element="path" data-sentry-source-file="ClockTimeIcon.tsx"></path><path d="M7.4375 0.4375C4.23522 0.4375 1.50062 2.74881 0.966872 5.90625L0.800622 5.65906C0.665216 5.45847 0.393091 5.40553 0.192497 5.54094C-0.00809704 5.67634 -0.0610345 5.94847 0.0743717 6.14906L0.949372 7.46156C1.02134 7.57094 1.13859 7.64247 1.26875 7.65625H1.3125C1.42843 7.65581 1.53934 7.60944 1.62093 7.52719L2.71468 6.43344C2.88553 6.26259 2.88553 5.98522 2.71468 5.81437C2.54384 5.64353 2.26647 5.64353 2.09562 5.81437L1.82437 6.08781C2.32815 2.98725 5.25 0.882437 8.35034 1.38622C11.4507 1.89 13.5559 4.81162 13.0522 7.91219C12.6048 10.6654 10.2268 12.6879 7.4375 12.6875C5.67831 12.7194 4.0145 11.8895 2.98156 10.465C2.84134 10.2681 2.56812 10.222 2.37125 10.3622C2.17437 10.5024 2.12822 10.7756 2.26843 10.9725C3.46456 12.6289 5.39481 13.596 7.4375 13.5625C11.062 13.5625 14 10.6245 14 7C14 3.37553 11.062 0.4375 7.4375 0.4375Z" fill="white" data-sentry-element="path" data-sentry-source-file="ClockTimeIcon.tsx"></path></svg>