<svg width="12" height="12" viewBox="0 0 12 12" fill="none" xmlns="http://www.w3.org/2000/svg"><path d="M11.3879 6.47947H0.612355C0.341986 6.47947 0.122559 6.26004 0.122559 5.98967C0.122559 5.71931 0.341986 5.49988 0.612355 5.49988H11.3879C11.6582 5.49988 11.8777 5.71931 11.8777 5.98967C11.8777 6.26004 11.6582 6.47947 11.3879 6.47947Z" fill="white"></path><path d="M11.3879 2.72446H0.612355C0.341986 2.72446 0.122559 2.50504 0.122559 2.23467C0.122559 1.9643 0.341986 1.74487 0.612355 1.74487H11.3879C11.6582 1.74487 11.8777 1.9643 11.8777 2.23467C11.8777 2.50504 11.6582 2.72446 11.3879 2.72446Z" fill="white"></path><path d="M11.3879 10.2345H0.612355C0.341986 10.2345 0.122559 10.015 0.122559 9.74468C0.122559 9.47431 0.341986 9.25488 0.612355 9.25488H11.3879C11.6582 9.25488 11.8777 9.47431 11.8777 9.74468C11.8777 10.015 11.6582 10.2345 11.3879 10.2345Z" fill="white"></path></svg>